<svg xmlns="http://www.w3.org/2000/svg" width="1200" height="630" viewBox="0 0 1200 630" role="img" aria-labelledby="title description">
  <title id="title">Obscura</title>
  <desc id="description">A local-first workspace for editing images and short videos.</desc>
  <defs>
    <linearGradient id="panel" x1="0" x2="1" y1="0" y2="1">
      <stop offset="0" stop-color="#202832" />
      <stop offset="1" stop-color="#11161e" />
    </linearGradient>
    <linearGradient id="accent" x1="0" x2="1" y1="0" y2="0">
      <stop offset="0" stop-color="#41b8ff" />
      <stop offset="1" stop-color="#4bd18d" />
    </linearGradient>
    <pattern id="grid" width="40" height="40" patternUnits="userSpaceOnUse">
      <path d="M 40 0 L 0 0 0 40" fill="none" stroke="#e6edf6" stroke-opacity="0.045" stroke-width="1" />
    </pattern>
  </defs>
  <rect width="1200" height="630" fill="#0d1117" />
  <rect width="1200" height="630" fill="url(#grid)" />
  <rect x="74" y="70" width="1052" height="490" rx="32" fill="url(#panel)" stroke="#8797aa" stroke-opacity="0.24" />
  <rect x="112" y="108" width="300" height="414" rx="24" fill="#131820" stroke="#8797aa" stroke-opacity="0.2" />
  <rect x="446" y="108" width="642" height="414" rx="24" fill="#090d13" stroke="#8797aa" stroke-opacity="0.2" />
  <rect x="138" y="138" width="248" height="54" rx="14" fill="#202832" />
  <rect x="138" y="216" width="112" height="82" rx="14" fill="#202832" />
  <rect x="274" y="216" width="112" height="82" rx="14" fill="#202832" />
  <rect x="138" y="322" width="248" height="82" rx="14" fill="#202832" />
  <rect x="138" y="428" width="174" height="54" rx="14" fill="#202832" />
  <rect x="502" y="166" width="250" height="250" rx="28" fill="#11161e" stroke="url(#accent)" stroke-width="5" />
  <circle cx="627" cy="291" r="78" fill="none" stroke="#e6edf6" stroke-opacity="0.74" stroke-width="16" />
  <circle cx="627" cy="291" r="34" fill="#41b8ff" fill-opacity="0.28" stroke="#7cd7ff" stroke-width="8" />
  <path d="M 804 202 L 1006 202 M 804 256 L 954 256 M 804 310 L 1018 310 M 804 364 L 920 364" stroke="#e6edf6" stroke-opacity="0.68" stroke-width="18" stroke-linecap="round" />
  <path d="M 804 430 L 1004 430" stroke="url(#accent)" stroke-width="20" stroke-linecap="round" />
  <text x="112" y="606" fill="#788596" font-family="Inter, Segoe UI, system-ui, sans-serif" font-size="24">https://obscura-rouge.vercel.app</text>
  <text x="470" y="482" fill="#e6edf6" font-family="Inter, Segoe UI, system-ui, sans-serif" font-size="78" font-weight="800">Obscura</text>
  <text x="470" y="524" fill="#aab6c6" font-family="Inter, Segoe UI, system-ui, sans-serif" font-size="30" font-weight="500">A local-first workspace for images and short videos</text>
</svg>
